<svg width="724" height="720" xmlns="http://www.w3.org/2000/svg" xmlns:xlink="http://www.w3.org/1999/xlink" overflow="hidden"><defs><clipPath id="clip0"><rect x="0" y="0" width="724" height="720"/></clipPath></defs><g clip-path="url(#clip0)"><path d="M90.4398 494.321C68.3046 532.159 54.9874 575.152 51.8559 618.891L45.2538 711.411 67.8072 713.027 74.4093 620.507C77.1564 582.082 88.5518 544.323 107.284 510.657L168.591 527.377C204.123 537.065 240.762 542.051 277.571 542.48 304.115 570.087 323.085 604.138 332.389 641.342L350.793 714.96 372.725 709.477 354.32 635.859C344.055 594.811 323.22 557.188 293.929 526.732L293.929 492.693C293.929 482.824 301.944 474.809 311.802 474.809 313.724 474.809 315.635 475.114 317.455 475.724L342.405 484.045C346.543 485.413 350.838 486.114 355.191 486.114 377.518 486.114 395.674 467.958 395.674 445.631L395.674 418.284C395.674 413.095 392.147 408.573 387.116 407.318L356.321 399.619C352.862 398.749 350.454 395.674 350.454 392.113 350.454 387.84 353.925 384.369 358.198 384.369L395.674 384.369C401.914 384.369 406.979 379.304 406.979 373.064L406.979 347.3 418.058 343.603C431.714 339.047 440.894 326.318 440.894 311.927 440.894 305.313 438.961 298.903 435.287 293.398L397.37 236.523C403.667 222.651 406.979 207.412 406.979 192.185 406.979 175.645 403.067 159.084 395.674 144.297L389.728 132.393C406.414 125.734 418.284 109.477 418.284 90.4398L418.284 67.8298C418.284 36.662 392.927 11.305 361.759 11.305L169.575 11.305C82.3002 11.305 11.305 82.3002 11.305 169.575L11.305 238.546C11.305 312.13 39.4091 381.351 90.4398 434.111L90.4398 494.321ZM416.475 305.935C417.662 307.71 418.284 309.779 418.284 311.915 418.284 316.562 415.322 320.677 410.913 322.146L392.102 328.421C387.478 329.969 384.369 334.277 384.369 339.149L384.369 361.759 358.198 361.759C341.455 361.759 327.844 375.37 327.844 392.113 327.844 406.063 337.295 418.171 350.827 421.551L373.064 427.113 373.064 445.631C373.064 455.489 365.049 463.504 355.191 463.504 353.269 463.504 351.358 463.199 349.538 462.588L324.588 454.268C320.451 452.9 316.155 452.199 311.802 452.199 289.475 452.199 271.319 470.355 271.319 492.682L271.319 519.656C238.625 518.751 206.124 514.173 174.537 505.558L113.05 488.782 113.05 433.84 189.381 346.599C192.298 343.264 192.998 338.527 191.167 334.48 189.336 330.433 185.322 327.844 180.88 327.844 162.181 327.844 146.965 312.616 146.965 293.918L146.965 248.709C146.965 236.24 157.105 226.099 169.575 226.099 174.436 226.099 179.252 227.705 183.141 230.621L219.316 257.753C222.267 259.98 226.133 260.602 229.638 259.449 233.154 258.296 235.867 255.504 236.941 251.954L268.685 146.151 366.451 136.372 375.461 154.403C381.283 166.07 384.369 179.139 384.369 192.185 384.369 205.23 381.283 218.299 375.449 229.966L374.262 232.351C372.454 235.98 372.714 240.31 374.963 243.679L416.475 305.935ZM33.9149 169.575C33.9149 94.7696 94.7696 33.9149 169.575 33.9149L361.759 33.9149C380.457 33.9149 395.674 49.1314 395.674 67.8298L395.674 90.4398C395.674 102.909 385.533 113.05 373.064 113.05L373.064 113.163C372.68 113.163 372.318 113.061 371.934 113.106L258.884 124.411C254.328 124.875 250.496 128.029 249.184 132.415L219.927 229.943 196.706 212.533C188.94 206.7 179.297 203.489 169.575 203.489 144.636 203.489 124.355 223.771 124.355 248.709L124.355 293.918C124.355 317.568 138.949 337.872 159.604 346.294L101.586 412.598C58.0171 364.845 33.9149 303.618 33.9149 238.546L33.9149 169.575Z" transform="scale(1.00067 1)"/><path d="M576.554 361.759C574.36 361.759 572.201 362.042 570.064 362.46 564.457 355.213 555.775 350.454 545.917 350.454 532.317 350.454 520.198 359.589 516.456 372.668L507.175 405.17C507.005 405.769 506.892 406.38 506.723 406.979L452.199 406.979 452.199 429.589 501.635 429.589C499.194 443.019 497.814 456.619 497.577 470.287L482.801 455.511 466.816 471.496 497.419 502.099 497.419 518.661C497.419 537.144 504.62 554.52 517.689 567.589 526.484 576.384 531.334 588.096 531.334 600.531L531.334 712.213 553.944 712.213 553.944 600.531C553.944 582.048 546.742 564.672 533.674 551.603 524.878 542.808 520.029 531.096 520.029 518.661L520.029 474.809C520.029 453.352 523.013 432.019 528.914 411.388L538.196 378.886C539.179 375.461 542.356 373.064 545.917 373.064 550.349 373.064 553.944 376.659 553.944 381.091L553.944 387.534C553.944 399.212 552.067 410.766 548.37 421.845 544.572 433.263 542.639 445.156 542.639 457.196L542.639 486.114C542.639 491.506 546.437 496.141 551.716 497.193 551.716 497.193 552.824 497.419 552.836 497.419 579.674 502.789 599.163 526.563 599.163 553.944L621.773 553.944C621.773 518.887 598.847 488.092 565.249 477.375L565.249 472.898C568.798 474.142 572.608 474.809 576.554 474.809 581.019 474.809 585.258 473.893 589.17 472.322 593.07 486.736 606.139 497.419 621.773 497.419 626.239 497.419 630.478 496.503 634.39 494.932 638.29 509.345 651.359 520.029 666.993 520.029 670.973 520.029 674.748 519.215 678.298 517.949L678.298 556.182C678.298 565.158 673.844 573.479 666.372 578.464 652.602 587.632 644.383 602.985 644.383 619.546L644.383 712.213 666.993 712.213 666.993 619.546C666.993 610.57 671.447 602.25 678.92 597.264 692.689 588.085 700.908 572.732 700.908 556.171L700.908 486.114 700.908 440.894C700.908 422.195 685.692 406.979 666.993 406.979 662.528 406.979 658.288 407.895 654.377 409.466 650.477 395.052 637.408 384.369 621.773 384.369 617.308 384.369 613.069 385.285 609.157 386.856 605.257 372.442 592.188 361.759 576.554 361.759ZM576.554 452.199C571.885 452.199 567.928 449.305 566.221 445.099 566.967 439.65 568.075 434.258 569.827 429.001 574.292 415.605 576.554 401.654 576.554 387.534L576.554 384.369C582.783 384.369 587.858 389.445 587.858 395.674L587.858 440.894C587.858 447.123 582.783 452.199 576.554 452.199ZM666.993 429.589C673.222 429.589 678.298 434.665 678.298 440.894L678.298 486.114C678.298 492.343 673.222 497.419 666.993 497.419 660.764 497.419 655.688 492.343 655.688 486.114L655.688 463.504 655.688 440.894C655.688 434.665 660.764 429.589 666.993 429.589ZM621.773 406.979C628.002 406.979 633.078 412.055 633.078 418.284L633.078 463.504C633.078 469.733 628.002 474.809 621.773 474.809 615.544 474.809 610.468 469.733 610.468 463.504L610.468 440.894 610.468 418.284C610.468 412.055 615.544 406.979 621.773 406.979Z" transform="scale(1.00067 1)"/><path d="M562.731 281.038 601.794 281.038 601.794 303.65 562.731 303.65Z" transform="matrix(0.868685 -0.496047 0.496377 0.868107 -68.3648 327.369)"/><path d="M432.36 329.496 562.584 329.496 562.584 352.108 432.36 352.108Z" transform="matrix(0.868685 -0.496047 0.496377 0.868107 -103.596 291.69)"/><path d="M469.225 583.015 491.838 583.015 491.838 611.722 469.225 611.722Z" transform="matrix(0.919678 -0.393842 0.394105 0.919066 -196.554 237.539)"/><path d="M431.229 447.249 453.84 447.249 453.84 570.254 431.229 570.254Z" transform="matrix(0.919662 -0.393879 0.394141 0.91905 -164.725 215.442)"/><text font-family="Arial,Arial_MSFontService,sans-serif" font-weight="700" font-size="5" transform="matrix(11.3125 0 0 11.305 0 893)">Created by Template<tspan font-size="5" x="0" y="5.04203">from the Noun Project</tspan></text></g></svg>