<svg width="717" height="721" xmlns="http://www.w3.org/2000/svg" xmlns:xlink="http://www.w3.org/1999/xlink" overflow="hidden"><defs><clipPath id="clip0"><rect x="0" y="0" width="717" height="721"/></clipPath></defs><g clip-path="url(#clip0)"><path d="M85.5069 716.362 456.038 716.362C503.189 716.362 541.545 673.682 541.545 621.22 541.704 600.34 535.394 579.923 523.481 562.775L523.453 562.731 523.391 562.636C523.223 562.397 523.011 562.209 522.827 561.987 522.566 561.649 522.285 561.326 521.987 561.019 521.705 560.766 521.409 560.526 521.103 560.303 520.823 560.083 520.56 559.849 520.26 559.655 519.945 559.452 519.607 559.3 519.276 559.131 518.949 558.962 518.633 558.779 518.289 558.642 517.953 558.508 517.602 558.427 517.256 558.326 516.893 558.22 516.541 558.095 516.164 558.024 515.726 557.955 515.285 557.911 514.842 557.893 514.563 557.873 514.296 557.81 514.012 557.81L143.481 557.81 143.415 557.817C142.815 557.83 142.216 557.889 141.624 557.994 141.474 558.018 141.315 558.013 141.167 558.043 140.961 558.085 140.763 558.175 140.558 558.229 140.037 558.35 139.525 558.507 139.026 558.699 138.974 558.721 138.928 558.757 138.876 558.779 138.241 559.051 137.632 559.38 137.057 559.763L136.998 559.794C136.772 559.948 136.595 560.142 136.383 560.308 136.022 560.576 135.676 560.864 135.349 561.172 135.087 561.452 134.841 561.745 134.61 562.051 134.391 562.32 134.155 562.574 133.962 562.862 133.76 563.187 133.575 563.522 133.407 563.866 133.244 564.174 133.063 564.469 132.929 564.794 132.796 565.149 132.681 565.512 132.585 565.88 132.487 566.212 132.365 566.533 132.298 566.876 132.215 567.361 132.165 567.851 132.147 568.343 132.134 568.566 132.079 568.777 132.079 569.003L132.085 569.058C132.093 569.716 132.16 570.373 132.286 571.019 132.301 571.1 132.297 571.187 132.314 571.267 132.408 571.629 132.52 571.985 132.651 572.334 132.762 572.681 132.839 573.042 132.982 573.374 133.024 573.47 133.093 573.558 133.138 573.653 133.401 574.233 133.713 574.788 134.071 575.314L134.103 575.37C143.441 588.823 148.371 604.844 148.212 621.22 148.212 661.336 120.083 693.975 85.507 693.975 50.9311 693.975 22.802 661.336 22.802 621.22L22.802 77.0745C123.329 79.0588 174.296 107.262 228.119 137.072 269.145 159.791 311.261 183.044 375.816 193.841 382.236 186.908 388.729 180.33 395.293 174.108 325.878 165.431 283.534 142.059 239.32 117.572 185.285 87.649 129.461 56.7432 22.802 54.6827L22.802 33.5794C22.8669 27.3435 27.9668 22.3366 34.2029 22.3863L433.236 22.3863C439.471 22.3376 444.571 27.344 444.637 33.5794L444.637 133.57C452.275 128.19 459.875 123.185 467.439 118.555L467.439 33.5794C467.245 14.8712 451.944-0.150018 433.236 0L34.2029 0C15.4942-0.150018 0.19411 14.8712 6.37061e-07 33.5794L0 621.22C0 673.682 38.3586 716.362 85.5069 716.362ZM171.014 621.22C171.05 607.115 168.19 593.152 162.612 580.196L507.75 580.196C515.055 592.626 518.854 606.803 518.743 621.22 518.743 661.336 490.613 693.975 456.038 693.975L140.493 693.975C160.255 674.964 171.298 648.641 171.014 621.22Z" transform="scale(1.00089 1)"/><path d="M456.038 537.271C462.276 537.328 467.38 532.317 467.439 526.078L467.439 431.602C460.05 434.706 452.425 437.213 444.637 439.1L444.637 526.078C444.695 532.317 449.799 537.328 456.038 537.271Z" transform="scale(1.00089 1)"/><path d="M252.282 442.129 57.0049 442.129C50.8231 442.015 45.7193 446.934 45.6053 453.116 45.4913 459.298 50.4103 464.402 56.5921 464.516 56.7297 464.518 56.8673 464.518 57.0049 464.516L235.028 464.516C240.387 456.76 246.147 449.288 252.282 442.129Z" transform="scale(1.00089 1)"/><path d="M57.0049 498.095C50.8231 497.981 45.7193 502.9 45.6053 509.082 45.4913 515.264 50.4103 520.367 56.5921 520.481 56.7297 520.484 56.8673 520.484 57.0049 520.481L221.263 520.481C217.279 513.744 215.805 505.815 217.1 498.095Z" transform="scale(1.00089 1)"/><path d="M389.436 445.152C381.687 445.316 374.444 445.474 367.235 446.042 351.823 447.897 337.322 454.332 325.607 464.516L410.434 464.516C416.673 464.572 421.777 459.561 421.835 453.323 421.813 449.352 419.674 445.696 416.225 443.73 407.492 444.546 398.598 444.953 389.436 445.152Z" transform="scale(1.00089 1)"/><path d="M57.0049 408.55 261.967 408.55C261.496 404.147 261.923 399.694 263.221 395.46 264.198 392.307 265.235 389.258 266.246 386.164L57.0049 386.164C50.8231 386.05 45.7193 390.969 45.6053 397.15 45.4913 403.332 50.4103 408.436 56.5921 408.55 56.7297 408.552 56.8673 408.552 57.0049 408.55Z" transform="scale(1.00089 1)"/><path d="M57.0049 296.618 303.759 296.618C307.799 288.929 311.927 281.434 316.181 274.232L57.0049 274.232C50.8231 274.118 45.7193 279.037 45.6053 285.219 45.4913 291.401 50.4103 296.504 56.5921 296.618 56.7297 296.621 56.8673 296.621 57.0049 296.618Z" transform="scale(1.00089 1)"/><path d="M57.0049 240.653 337.945 240.653C343.453 232.864 349.071 225.402 354.797 218.266L57.0049 218.266C50.8231 218.152 45.7193 223.071 45.6053 229.253 45.4913 235.435 50.4103 240.539 56.5921 240.653 56.7297 240.655 56.8673 240.655 57.0049 240.653Z" transform="scale(1.00089 1)"/><path d="M57.0049 352.584 278.278 352.584C281.27 344.949 284.33 337.442 287.523 330.198L57.0049 330.198C50.8231 330.084 45.7193 335.003 45.6053 341.185 45.4913 347.366 50.4103 352.47 56.5921 352.584 56.7297 352.587 56.8673 352.587 57.0049 352.584Z" transform="scale(1.00089 1)"/><path d="M716.205 84.3476C715.285 79.1637 710.913 75.2977 705.656 75.0181 702.454 74.8104 625.799 70.7059 535.176 108.909 451.584 144.139 340.336 223.584 285.035 401.981 283.384 407.384 286.047 413.166 291.225 415.425 296.415 417.768 302.539 415.954 305.616 411.162 306.375 409.965 382.911 291.492 503.3 274.112 509.443 273.289 513.755 267.642 512.932 261.5 512.928 261.47 512.924 261.44 512.92 261.41 511.923 255.25 506.154 251.039 499.982 251.966 425.209 262.76 367.14 307.702 330.508 345.179 375.986 242.861 447.326 170.586 543.232 129.875 581.69 113.654 622.352 103.259 663.877 99.0332 631.026 127.88 609.767 170.422 595.649 198.679L592.025 205.904C494.894 398.084 445.555 399.149 388.428 400.385 380.423 400.559 372.139 400.74 363.575 401.418 288.394 407.347 242.557 494.925 240.642 498.647 237.854 504.106 240.02 510.79 245.478 513.578 245.544 513.612 245.61 513.644 245.677 513.677 247.272 514.467 249.029 514.878 250.809 514.879 255.085 514.898 259.013 512.53 260.994 508.741 261.409 507.943 303.038 428.651 365.404 423.727 373.308 423.104 381.252 422.935 388.929 422.765 450.771 421.432 509.184 420.169 612.455 215.85L616.124 208.538C633.509 173.745 662.607 115.506 709.319 96.5297 714.193 94.5926 717.059 89.5221 716.205 84.3476Z" transform="scale(1.00089 1)"/><text font-family="Arial,Arial_MSFontService,sans-serif" font-weight="700" font-size="5" transform="matrix(5.60156 0 0 5.59657 0 800)">Created by WEBTECHOPS LLP<tspan font-size="5" x="0" y="5.00306">from the Noun Project</tspan></text></g></svg>